<?xml version="1.0" standalone="no"?>
<!DOCTYPE svg PUBLIC "-//W3C//DTD SVG 20010904//EN"
 "http://www.w3.org/TR/2001/REC-SVG-20010904/DTD/svg10.dtd">
<svg version="1.0" xmlns="http://www.w3.org/2000/svg"
 width="640.000000pt" height="640.000000pt" viewBox="0 0 640.000000 640.000000"
 preserveAspectRatio="xMidYMid meet">
<metadata>
Created by potrace 1.11, written by Peter Selinger 2001-2013
</metadata>
<g transform="translate(0.000000,640.000000) scale(0.100000,-0.100000)"
fill="#000000" stroke="none">
<path d="M0 3200 l0 -3200 3200 0 3200 0 0 3200 0 3200 -3200 0 -3200 0 0
-3200z m3844 1521 c-5 -5 -139 -107 -299 -226 -159 -120 -298 -225 -307 -234
-16 -15 -18 -59 -20 -521 l-3 -505 -372 -3 -373 -2 0 57 c-1 156 -2 874 -1
915 l1 46 258 193 c141 105 286 214 321 240 l64 49 370 0 c219 0 367 -4 361
-9z m-1862 -26 c9 -21 7 -34 -12 -75 -16 -33 -30 -50 -42 -50 -21 0 -22 4 -8
29 7 15 4 20 -15 29 -18 8 -25 20 -25 40 0 37 17 52 57 52 26 0 36 -6 45 -25z
m136 13 c18 -18 15 -54 -8 -98 -14 -27 -27 -40 -41 -40 -17 0 -18 3 -9 21 10
17 7 23 -14 40 -28 22 -32 39 -16 70 12 22 68 27 88 7z m150 0 c7 -7 12 -23
12 -36 0 -33 -42 -102 -62 -102 -21 0 -22 4 -8 30 8 15 6 20 -10 25 -25 8 -35
46 -20 74 12 24 68 29 88 9z m567 -39 c2 -2 -104 -84 -235 -183 -131 -98 -241
-185 -244 -193 -3 -8 -6 -46 -6 -84 l0 -69 -220 0 c-207 0 -221 1 -240 20 -24
24 -24 29 -5 57 18 25 653 449 681 455 23 4 264 2 269 -3z m1600 -9 c22 -18
18 -53 -7 -77 -13 -11 -166 -116 -341 -232 l-319 -211 -219 0 -219 0 0 28 c0
24 36 54 315 262 173 129 324 237 335 240 12 3 115 4 230 4 153 -1 214 -5 225
-14z m12 -229 c7 -15 8 -31 3 -41 -5 -9 -159 -116 -342 -238 l-333 -222 -223
0 -222 0 0 50 0 50 205 0 204 0 323 215 c339 225 360 235 385 186z m-18 -191
c11 0 28 -42 24 -60 -2 -9 -157 -118 -344 -243 l-340 -227 -220 0 -219 0 0 55
0 55 209 0 210 0 323 215 c178 118 329 213 336 210 8 -3 17 -5 21 -5z m-2079
-244 c0 -19 3 -41 6 -50 5 -14 -18 -16 -224 -16 -224 0 -231 1 -246 21 -8 12
-12 29 -9 38 13 38 31 41 255 41 l218 0 0 -34z m2076 26 c6 -4 16 -17 22 -29
10 -17 8 -25 -6 -41 -9 -11 -163 -118 -342 -236 l-325 -216 -222 0 -223 0 0
50 0 50 206 0 206 0 321 215 c177 118 329 215 337 215 8 0 20 -4 26 -8z
m-2073 -257 l0 -50 -217 -3 c-129 -1 -224 2 -235 7 -30 17 -33 50 -6 77 23 23
25 23 240 21 l218 -2 0 -50z m2094 14 c6 -12 9 -29 5 -36 -4 -6 -160 -114
-346 -238 l-338 -225 -219 0 -219 0 0 50 c0 33 4 50 13 51 6 1 100 2 207 3
l195 3 324 215 c344 230 350 232 378 177z m-2097 -229 l0 -50 -225 0 -225 0
-16 25 c-15 23 -15 27 0 50 l16 25 225 0 225 0 0 -50z m-72 -169 l72 -1 0 -50
0 -50 -218 0 c-225 0 -241 3 -255 42 -3 9 2 26 11 37 14 17 31 21 102 23 47 2
114 2 150 1 36 -1 98 -2 138 -2z m-968 -402 c34 -19 40 -27 35 -46 -8 -34 -24
-73 -29 -73 -3 0 -22 11 -42 25 -86 59 -204 4 -204 -95 0 -37 51 -95 93 -106
40 -9 93 4 126 31 l29 25 16 -46 c12 -36 13 -50 4 -61 -41 -50 -171 -64 -243
-26 -76 40 -116 105 -116 186 0 62 10 92 46 135 68 81 193 103 285 51z m891
-5 c30 -19 39 -30 34 -42 -4 -9 -11 -32 -17 -50 l-9 -33 -30 25 c-46 39 -145
47 -165 14 -12 -19 36 -48 80 -48 84 -1 166 -64 166 -128 0 -41 -29 -88 -69
-110 -72 -41 -212 -23 -245 30 -7 11 -6 29 4 57 15 47 20 49 45 21 28 -31 85
-45 129 -30 64 21 42 55 -40 62 -145 13 -219 128 -136 211 62 62 174 71 253
21z m-430 -164 c93 -253 91 -232 27 -228 -46 3 -53 6 -56 26 -3 21 -7 22 -102
22 -96 0 -98 0 -104 -25 -6 -22 -11 -25 -56 -25 -28 0 -50 5 -50 10 0 10 35
108 90 255 10 28 27 74 37 103 l18 53 64 -3 65 -3 67 -185z m669 85 l0 -106
68 3 67 3 3 103 3 102 50 0 49 0 -2 -207 -3 -208 -47 -3 -47 -3 -3 58 -3 58
-65 0 -65 0 -3 -58 -3 -58 -47 3 -47 3 -3 208 -2 207 50 0 50 0 0 -105z m-65
-574 c27 -12 60 -31 71 -42 l22 -21 -24 -71 c-13 -38 -26 -72 -29 -75 -2 -3
-22 11 -44 31 -47 42 -108 61 -170 53 -172 -24 -230 -213 -95 -309 75 -53 184
-46 268 18 l45 34 25 -76 25 -75 -22 -19 c-54 -45 -110 -64 -202 -67 -112 -5
-181 18 -254 84 -185 167 -123 456 117 547 66 25 199 19 267 -12z m395 -231
l0 -250 170 0 170 0 0 -70 0 -70 -245 0 -245 0 0 320 0 320 75 0 75 0 0 -250z
m935 233 c3 -10 54 -147 111 -306 58 -158 107 -294 110 -302 5 -13 -7 -15 -73
-15 l-79 0 -17 35 -17 36 -142 -3 -143 -3 -14 -32 -15 -33 -78 0 c-43 0 -78 2
-78 4 0 4 59 168 165 456 29 80 57 153 60 163 6 15 21 17 105 17 84 0 99 -2
105 -17z m614 -139 c58 -85 108 -157 113 -160 4 -3 8 67 8 155 l0 161 75 0 75
0 0 -320 0 -320 -67 0 -68 0 -110 170 c-60 93 -113 170 -117 170 -5 0 -8 -76
-8 -170 l0 -170 -75 0 -75 0 0 320 0 320 73 0 72 -1 104 -155z"/>
<path d="M2800 4285 c-7 -8 -15 -34 -18 -58 -4 -37 -9 -44 -44 -62 -61 -30
-101 -93 -106 -164 -6 -77 11 -125 62 -175 42 -42 98 -66 155 -66 49 0 93 -46
95 -98 3 -137 -186 -151 -207 -14 -10 61 -58 81 -98 41 -17 -17 -20 -28 -15
-62 11 -69 68 -143 128 -168 21 -9 28 -18 28 -40 0 -60 35 -98 78 -84 23 7 42
46 42 83 0 22 9 32 43 50 83 45 133 156 107 240 -30 92 -94 146 -196 162 -80
13 -114 47 -114 111 0 40 4 51 31 73 65 55 159 20 173 -64 7 -45 42 -76 76
-65 80 25 17 210 -85 246 -31 12 -35 17 -35 49 0 48 -24 80 -59 80 -16 0 -34
-7 -41 -15z"/>
<path d="M1917 4683 c-13 -12 -7 -23 13 -23 11 0 20 7 20 15 0 15 -21 21 -33
8z"/>
<path d="M2060 4675 c0 -8 9 -15 20 -15 11 0 20 7 20 15 0 8 -9 15 -20 15 -11
0 -20 -7 -20 -15z"/>
<path d="M2210 4676 c0 -10 9 -16 21 -16 24 0 21 23 -4 28 -10 2 -17 -3 -17
-12z"/>
<path d="M1608 2805 l-27 -75 59 0 59 0 -25 68 c-14 37 -29 70 -32 74 -4 4
-19 -26 -34 -67z"/>
<path d="M3552 2038 c-22 -62 -38 -116 -35 -120 5 -9 157 -11 165 -2 4 3 -7
42 -24 87 -16 45 -35 97 -41 115 -6 17 -14 32 -18 32 -4 0 -25 -51 -47 -112z"/>
</g>
</svg>
